<?xml version="1.0" encoding="UTF-8" standalone="no"?>
<!-- Created with Inkscape (http://www.inkscape.org/) -->
<svg
   width="468"
   height="60"
   viewBox="0 0 123.825 15.875001"
   version="1.1"
   id="svg1"
   inkscape:version="1.3 (0e150ed6c4, 2023-07-21)"
   sodipodi:docname="heart.svg"
   xml:space="preserve"
	xmlns:inkscape="http://www.inkscape.org/namespaces/inkscape"
	xmlns:sodipodi="http://sodipodi.sourceforge.net/DTD/sodipodi-0.dtd"
	xmlns="http://www.w3.org/2000/svg"
	xmlns:svg="http://www.w3.org/2000/svg">
	<defs>
		<path
       id="heart"
       style="fill:none;stroke:#ff00d2;stroke-width:0.2;stroke-linecap:square;stroke-linejoin:round;stroke-dasharray:none;stroke-opacity:0.626966"
       d="m 42.929444,7.380062 c 0.269957,0.2299539 0.539913,0.4599068 1.479444,0.879638 0.939531,0.4197313 2.548619,1.0292341 4.087404,1.0604187 1.538786,0.031185 3.00717,-0.5159487 3.949233,-0.9406769 C 53.387589,7.9547137 53.803303,7.6524021 54.135108,7.3755959 54.466912,7.0987897 54.714805,6.8474907 54.695597,6.5967548 54.67639,6.346019 54.390088,6.0958522 53.991196,6.184804 c -0.398892,0.088952 -0.910333,0.5170053 -0.767177,1.1910936 0.143157,0.6740883 0.940895,1.5941275 2.343888,1.9149941 1.402993,0.3208667 3.411127,0.042518 4.852392,-0.3021628 C 61.861563,8.6440486 62.735923,8.2330437 63.463906,7.7328054 64.191889,7.2325671 64.77347,6.6431122 65.136218,6.1219226 65.498967,5.6007329 65.642877,5.1478141 65.669386,4.860786 65.695894,4.5737578 65.605,4.4526318 65.409388,4.3420957 65.213777,4.2315596 64.913451,4.1316156 64.603098,4.3492324 64.292745,4.5668492 63.972373,5.1020197 63.869604,5.1506844 63.766835,5.199349 63.881674,4.7615039 63.685707,4.3918069 63.48974,4.0221099 62.982971,3.7205654 62.534998,4.0326141 c -0.447974,0.3120488 -0.837116,1.2376496 -0.26449,2.2995096 0.572626,1.06186 2.106948,2.2598549 3.475302,2.5760085 1.368354,0.3161536 2.570595,-0.2495858 3.442024,-0.5692488 0.871429,-0.319663 1.412022,-0.3932394 1.970933,-0.2674052 0.55891,0.1258342 1.136115,0.4510737 1.655915,0.6609395 0.5198,0.2098657 0.982191,0.3043553 1.418447,0.2818645 0.436256,-0.022491 0.846369,-0.1619608 1.264712,-0.3634882 0.418343,-0.2015273 0.844911,-0.4651099 1.271481,-0.7286937"
      />
		<rect
       id="rect"
       style="fill:none;stroke:#ff00d2;stroke-width:0.212699;stroke-linecap:square;stroke-linejoin:round;stroke-opacity:0.626966"
       width="9.9407635"
       height="7.3934321"
       x="30.715849"
       y="4.0160384"
      />
	</defs>
  <use href="#rect" />
  <use href="#heart" />
</svg>
